# xmcd
# 
# Track frame offsets:
#	150
#	13185
#	26192
#	40557
#	55095
#	68912
#	82917
#	96852
#	108547
#	121780
#	134767
#	148930
#	162637
#	177040
#
# Disc length: 2520 seconds
#
# Revision: 1
# Processed by: cddbd v1.4PL0 Copyright (c) Steve Scherf et al.
# Submitted via: Audio-CD-Archiv 2.10.446
#
DISCID=c209d60e
DTITLE=Frank Tannehill - 1932 - 1941
DYEAR=1900
DGENRE=blues
TTITLE0=Red Hot Papa (Pere Dickson, vcl.)
TTITLE1=Get Away From My Window (Pere Dickson, vcl.)
TTITLE2=Steel Mill Blues
TTITLE3=I. G. N. Blues
TTITLE4=Ramblin' Mind Blues (Willie Bee, vcl.)
TTITLE5=Can't Control My Mind (Willie Bee, vcl.)
TTITLE6=Door Bell Blues
TTITLE7=Do Right Blues
TTITLE8=Warehouse Blues
TTITLE9=Parted Down Blues
TTITLE10=Lillie Mae
TTITLE11=Rolling Stone Blues
TTITLE12=Sweet Jelly Roll
TTITLE13=Four O'Clock Morning Blues
EXTD=
EXTT0=
EXTT1=
EXTT2=
EXTT3=
EXTT4=
EXTT5=
EXTT6=
EXTT7=
EXTT8=
EXTT9=
EXTT10=
EXTT11=
EXTT12=
EXTT13=
PLAYORDER=
